<svg width="6" height="25" viewBox="0 0 6 25" fill="none" xmlns="http://www.w3.org/2000/svg">
<path d="M3 5C4.10457 5 5 4.10457 5 3C5 1.89543 4.10457 1 3 1C1.89543 1 1 1.89543 1 3C1 4.10457 1.89543 5 3 5Z" fill="white" stroke="white" stroke-width="1.5" stroke-linecap="round" stroke-linejoin="round"/>
<path d="M3 14.1667C4.10457 14.1667 5 13.2713 5 12.1667C5 11.0622 4.10457 10.1667 3 10.1667C1.89543 10.1667 1 11.0622 1 12.1667C1 13.2713 1.89543 14.1667 3 14.1667Z" fill="white" stroke="white" stroke-width="1.5" stroke-linecap="round" stroke-linejoin="round"/>
<path d="M3 23.3333C4.10457 23.3333 5 22.4378 5 21.3333C5 20.2287 4.10457 19.3333 3 19.3333C1.89543 19.3333 1 20.2287 1 21.3333C1 22.4378 1.89543 23.3333 3 23.3333Z" fill="white" stroke="white" stroke-width="1.5" stroke-linecap="round" stroke-linejoin="round"/>
</svg>
